<svg xmlns="http://www.w3.org/2000/svg" viewBox="0 0 346.01 255.1"><defs><style>.cls-1{font-size:34px;fill:#191919;font-family:TitilliumWeb-Light, Titillium Web;font-weight:300;}.cls-2{letter-spacing:-0.01em;}.cls-3{font-size:18px;font-family:TitilliumWeb-ExtraLight, Titillium Web;font-weight:200;}.cls-4{letter-spacing:-0.02em;}.cls-5{letter-spacing:-0.02em;}.cls-6{letter-spacing:0em;}.cls-7{letter-spacing:-0.01em;}.cls-8{fill:#fff;}.cls-9{fill:#141414;}.cls-10{font-size:29px;font-family:TitilliumWeb-SemiBold, Titillium Web;font-weight:600;}.cls-11{fill:#bcccfd;}.cls-12{fill:#f4d74a;}</style></defs><g id="Layer_2" data-name="Layer 2"><g id="OBJECTS"><text class="cls-1" transform="translate(0 216.89)">UNDER <tspan class="cls-2" x="113.8" y="0">C</tspan><tspan x="131.88" y="0">ONSTRUCTION</tspan></text><text class="cls-3" transform="translate(28.31 250.29)"><tspan class="cls-4">W</tspan><tspan x="15.03" y="0">e a</tspan><tspan class="cls-5" x="36.94" y="0">r</tspan><tspan x="42.53" y="0">e cur</tspan><tspan class="cls-5" x="78.44" y="0">r</tspan><tspan x="84.04" y="0">e</tspan><tspan class="cls-6" x="93.08" y="0">n</tspan><tspan x="102.47" y="0">tly </tspan><tspan class="cls-7" x="124.76" y="0">w</tspan><tspan x="138.2" y="0">orking on this page</tspan></text><rect x="95.44" y="50.84" width="155.14" height="121.93"/><rect class="cls-8" x="95.44" y="64.65" width="155.14" height="108.11"/><path class="cls-8" d="M103.26,57.48A2.27,2.27,0,1,1,101,55.22,2.27,2.27,0,0,1,103.26,57.48Z"/><path class="cls-8" d="M112.88,57.48a2.26,2.26,0,1,1-2.26-2.26A2.27,2.27,0,0,1,112.88,57.48Z"/><path class="cls-8" d="M122.51,57.48a2.27,2.27,0,1,1-2.27-2.26A2.27,2.27,0,0,1,122.51,57.48Z"/><path class="cls-8" d="M197.2,61.55H133.35a3.86,3.86,0,0,1-3.86-3.86h0a3.86,3.86,0,0,1,3.86-3.87H197.2a3.87,3.87,0,0,1,3.87,3.87h0A3.86,3.86,0,0,1,197.2,61.55Z"/><path class="cls-8" d="M241.12,61.55H210.89A3.86,3.86,0,0,1,207,57.69h0a3.86,3.86,0,0,1,3.86-3.87h30.23A3.87,3.87,0,0,1,245,57.69h0A3.86,3.86,0,0,1,241.12,61.55Z"/><path class="cls-9" d="M251.39,173.58H94.62V50H251.39ZM96.25,172H249.76V51.66H96.25Z"/><text class="cls-10" transform="translate(115.49 131.29)">WEBSITE</text><rect class="cls-9" x="104.45" y="68.86" width="44.35" height="22.85" transform="translate(245.32 171.89) rotate(-174.72)"/><path class="cls-9" d="M73,159.8h9.14a.55.55,0,0,0,.49-.32.54.54,0,0,0-.1-.57l-8.79-9.49-.77.72,8,8.6H73Z"/><path class="cls-9" d="M72.54,50.85H82.86V164.07H72.54Zm9.27,1H73.6V163h8.21Z"/><rect class="cls-8" x="71.13" y="158.51" width="13.14" height="14.42" transform="translate(155.4 331.45) rotate(180)"/><path class="cls-9" d="M73,120.82h9.14a.55.55,0,0,0,.49-.32.54.54,0,0,0-.1-.57l-8.79-9.49-.77.71,8,8.61H73Z"/><path class="cls-9" d="M73,130.56h9.14a.53.53,0,0,0,.49-.32.54.54,0,0,0-.1-.57l-8.79-9.49-.77.72,8,8.61H73Z"/><path class="cls-9" d="M73,140.31h9.14a.55.55,0,0,0,.49-.32.54.54,0,0,0-.1-.57l-8.79-9.49-.77.71,8,8.61H73Z"/><path class="cls-9" d="M73,150.05h9.14a.52.52,0,0,0,.39-.88l-8.79-9.5-.77.72L81,149H73Z"/><path class="cls-9" d="M73,111.3h9.14a.52.52,0,0,0,.39-.88l-8.79-9.5-.77.72,8,8.61H73Z"/><path class="cls-9" d="M73,101.79h9.14a.52.52,0,0,0,.39-.88l-8.79-9.5-.77.72,8,8.61H73Z"/><path class="cls-9" d="M73,92.28h9.14a.53.53,0,0,0,.49-.32.52.52,0,0,0-.1-.56l-8.79-9.5-.77.72,8,8.61H73Z"/><path class="cls-9" d="M73,82.77h9.14a.53.53,0,0,0,.49-.32.54.54,0,0,0-.1-.57l-8.79-9.49-.77.72,8,8.6H73Z"/><path class="cls-9" d="M73,73.26h9.14a.55.55,0,0,0,.49-.32.54.54,0,0,0-.1-.57l-8.79-9.49-.77.71,8,8.61H73Z"/><path class="cls-9" d="M73,63.75h9.14a.55.55,0,0,0,.49-.32.54.54,0,0,0-.1-.57l-8.79-9.49-.77.71,8,8.61H73Z"/><path class="cls-9" d="M73,54.23h9.14a.52.52,0,0,0,.39-.88l-8.79-9.49-.77.71,8,8.61H73Z"/><rect class="cls-8" x="72.56" y="40.32" width="16.73" height="14.1" transform="translate(161.85 94.74) rotate(180)"/><rect class="cls-8" x="47.42" y="40.32" width="16.73" height="8.1" transform="translate(111.57 88.74) rotate(180)"/><path class="cls-9" d="M47.7,41.35h82.63a.52.52,0,0,0,.52-.53.52.52,0,0,0-.52-.52H47.7a.52.52,0,0,0-.53.52A.53.53,0,0,0,47.7,41.35Z"/><rect class="cls-8" x="125.96" y="43.28" width="0.53" height="24.28"/><rect class="cls-9" x="66.65" y="171.25" width="22.11" height="4.14" transform="translate(155.4 346.65) rotate(180)"/><path class="cls-9" d="M80.86,41.21a.24.24,0,0,0,.19-.08l4.4-4.4h40.4L130,40.87a.27.27,0,0,0,.37,0,.25.25,0,0,0,0-.37l-4.29-4.3H85.24l-4.56,4.56a.25.25,0,0,0,0,.37A.23.23,0,0,0,80.86,41.21Z"/><path class="cls-9" d="M47.34,41.21a.27.27,0,0,0,.24-.14L52,32.65H62.68l4.15,8.15a.26.26,0,0,0,.35.12.27.27,0,0,0,.12-.35L63,32.12H51.67l-4.56,8.71a.25.25,0,0,0,.11.35A.27.27,0,0,0,47.34,41.21Z"/><circle class="cls-8" cx="126.22" cy="43.28" r="1.93"/><path class="cls-9" d="M114.79,36.73a.27.27,0,0,0,.25-.19.26.26,0,0,0-.17-.33L75.82,24.3a.37.37,0,0,0-.18,0L57.13,32.12a.28.28,0,0,0-.14.35.27.27,0,0,0,.35.14l18.42-7.77,38.95,11.87Z"/><path class="cls-9" d="M81.89,41.25a.39.39,0,0,0,.18,0,.53.53,0,0,0,.31-.68L76.23,24.35a.52.52,0,0,0-.54-.33.53.53,0,0,0-.47.42L72,40.22a.53.53,0,0,0,1,.2l2.81-14,5.5,14.47A.53.53,0,0,0,81.89,41.25Z"/><path class="cls-11" d="M74.68,24.54a1.06,1.06,0,1,0,1.06-1.06A1.05,1.05,0,0,0,74.68,24.54Z"/><path class="cls-9" d="M120.35,41.26a.27.27,0,0,0,.17-.06L125.69,37v3.91a.27.27,0,1,0,.53,0V36.47a.26.26,0,0,0-.15-.24.26.26,0,0,0-.28,0l-5.61,4.53a.27.27,0,0,0,0,.37A.26.26,0,0,0,120.35,41.26Z"/><path class="cls-9" d="M115.34,41.26a.27.27,0,0,0,.17-.06L120.69,37v3.91a.26.26,0,1,0,.52,0V36.47a.24.24,0,0,0-.15-.24.26.26,0,0,0-.28,0l-5.6,4.53a.25.25,0,0,0,0,.37A.23.23,0,0,0,115.34,41.26Z"/><path class="cls-9" d="M110.33,41.26a.27.27,0,0,0,.17-.06L115.68,37v3.91a.27.27,0,1,0,.53,0V36.47a.27.27,0,0,0-.43-.21l-5.61,4.53a.26.26,0,0,0,0,.37A.25.25,0,0,0,110.33,41.26Z"/><path class="cls-9" d="M105.33,41.26a.27.27,0,0,0,.16-.06L110.67,37v3.91a.27.27,0,1,0,.53,0V36.47a.26.26,0,0,0-.15-.24.26.26,0,0,0-.28,0l-5.61,4.53a.27.27,0,0,0,0,.37A.25.25,0,0,0,105.33,41.26Z"/><path class="cls-9" d="M100.32,41.26a.25.25,0,0,0,.16-.06L105.66,37v3.91a.27.27,0,1,0,.53,0V36.47a.26.26,0,0,0-.15-.24.26.26,0,0,0-.28,0l-5.61,4.53a.27.27,0,0,0,0,.37A.25.25,0,0,0,100.32,41.26Z"/><path class="cls-9" d="M95.31,41.26a.23.23,0,0,0,.16-.06L100.65,37v3.91a.27.27,0,1,0,.53,0V36.47a.26.26,0,0,0-.15-.24.26.26,0,0,0-.28,0l-5.61,4.53a.27.27,0,0,0,0,.37A.26.26,0,0,0,95.31,41.26Z"/><path class="cls-9" d="M90.3,41.26a.27.27,0,0,0,.17-.06L95.65,37v3.91a.26.26,0,1,0,.52,0V36.47a.26.26,0,0,0-.15-.24.26.26,0,0,0-.28,0l-5.61,4.53a.26.26,0,0,0,0,.37A.23.23,0,0,0,90.3,41.26Z"/><path class="cls-9" d="M85.29,41.26a.27.27,0,0,0,.17-.06L90.64,37v3.91a.27.27,0,0,0,.26.27.26.26,0,0,0,.26-.27V36.47a.26.26,0,0,0-.42-.21l-5.61,4.53a.26.26,0,0,0,0,.37A.25.25,0,0,0,85.29,41.26Z"/><path class="cls-9" d="M55.69,41.26a.27.27,0,0,0,.2-.09l6.72-7.94v7.7a.27.27,0,1,0,.53,0V32.51a.27.27,0,0,0-.17-.25.28.28,0,0,0-.29.08l-7.19,8.49a.25.25,0,0,0,0,.37A.27.27,0,0,0,55.69,41.26Z"/><path class="cls-9" d="M50.51,41.26a.25.25,0,0,0,.22-.12l5.13-7.75v7.54a.27.27,0,1,0,.53,0V32.51a.27.27,0,0,0-.19-.25.27.27,0,0,0-.3.11l-5.61,8.48a.27.27,0,0,0,.08.37A.23.23,0,0,0,50.51,41.26Z"/><path class="cls-9" d="M124.56,68.27a1.66,1.66,0,1,0,1.66-1.66A1.66,1.66,0,0,0,124.56,68.27Z"/><rect class="cls-9" x="202.72" y="76.05" width="42.12" height="21.71" transform="translate(-7.05 20.96) rotate(-5.28)"/><path class="cls-9" d="M274.7,129.48H266a.51.51,0,0,1-.46-.3.52.52,0,0,1,.09-.55l8.35-9,.74.68-7.57,8.17h7.53Z"/><path class="cls-9" d="M275.15,133.53h-9.8V26h9.8Zm-8.8-1h7.8V27h-7.8Z"/><rect class="cls-8" x="264.01" y="128.26" width="12.48" height="13.7"/><path class="cls-9" d="M274.7,92.45H266a.51.51,0,0,1-.46-.3.51.51,0,0,1,.09-.54l8.35-9,.74.68-7.57,8.18h7.53Z"/><path class="cls-9" d="M274.7,101.71H266a.5.5,0,0,1-.37-.84l8.35-9,.74.68-7.57,8.18h7.53Z"/><path class="cls-9" d="M274.7,111H266a.49.49,0,0,1-.46-.3.51.51,0,0,1,.09-.54l8.35-9,.74.68L267.17,110h7.53Z"/><path class="cls-9" d="M274.7,120.22H266a.5.5,0,0,1-.37-.84l8.35-9,.74.68-7.57,8.18h7.53Z"/><path class="cls-9" d="M274.7,83.42H266a.5.5,0,0,1-.37-.84l8.35-9,.74.68-7.57,8.17h7.53Z"/><path class="cls-9" d="M274.7,74.38H266a.51.51,0,0,1-.46-.3.51.51,0,0,1,.09-.54l8.35-9,.74.68-7.57,8.18h7.53Z"/><path class="cls-9" d="M274.7,65.35H266a.5.5,0,0,1-.37-.84l8.35-9,.74.68-7.57,8.18h7.53Z"/><path class="cls-9" d="M274.7,56.31H266a.49.49,0,0,1-.46-.3.51.51,0,0,1,.09-.54l8.35-9,.74.68-7.57,8.17h7.53Z"/><path class="cls-9" d="M274.7,47.28H266a.5.5,0,0,1-.37-.84l8.35-9,.74.68-7.57,8.18h7.53Z"/><path class="cls-9" d="M274.7,38.25H266a.51.51,0,0,1-.46-.3.52.52,0,0,1,.09-.55l8.35-9,.74.68-7.57,8.17h7.53Z"/><path class="cls-9" d="M274.7,29.21H266a.51.51,0,0,1-.46-.3.51.51,0,0,1,.09-.54l8.35-9,.74.68-7.57,8.18h7.53Z"/><rect class="cls-8" x="259.24" y="16" width="15.89" height="13.4"/><rect class="cls-8" x="283.12" y="16" width="15.89" height="7.69"/><path class="cls-9" d="M298.75,17H220.27a.5.5,0,0,1-.5-.5.5.5,0,0,1,.5-.5h78.48a.5.5,0,0,1,.5.5A.5.5,0,0,1,298.75,17Z"/><rect class="cls-8" x="223.91" y="18.81" width="0.5" height="56"/><rect class="cls-9" x="259.75" y="140.35" width="21" height="3.94"/><path class="cls-9" d="M267.25,16.84a.24.24,0,0,1-.18-.07l-4.18-4.18H224.52l-3.93,3.93a.25.25,0,0,1-.36,0,.24.24,0,0,1,0-.35l4.08-4.09h38.78l4.33,4.34a.24.24,0,0,1,0,.35A.22.22,0,0,1,267.25,16.84Z"/><path class="cls-9" d="M299.08,16.84a.26.26,0,0,1-.22-.13l-4.19-8H284.52l-3.94,7.75a.26.26,0,0,1-.34.11.26.26,0,0,1-.11-.34l4.08-8H295l4.32,8.27a.24.24,0,0,1-.1.33A.27.27,0,0,1,299.08,16.84Z"/><path class="cls-8" d="M226,18.81A1.84,1.84,0,1,1,224.16,17,1.84,1.84,0,0,1,226,18.81Z"/><path class="cls-9" d="M235,12.58a.26.26,0,0,1-.24-.18.25.25,0,0,1,.17-.31L272,.78a.33.33,0,0,1,.17,0l17.58,7.42a.26.26,0,0,1,.13.33.25.25,0,0,1-.33.13L272.1,1.29l-37,11.28Z"/><path class="cls-9" d="M266.28,16.88a.39.39,0,0,1-.18,0,.49.49,0,0,1-.29-.64L271.65.83a.49.49,0,0,1,.51-.32.51.51,0,0,1,.45.4l3,15a.51.51,0,0,1-.4.59.51.51,0,0,1-.59-.4L272,2.81l-5.23,13.74A.49.49,0,0,1,266.28,16.88Z"/><path class="cls-11" d="M273.12,1a1,1,0,1,1-1-1A1,1,0,0,1,273.12,1Z"/><path class="cls-9" d="M229.74,16.89a.27.27,0,0,1-.15-.05l-4.92-4v3.72a.25.25,0,0,1-.25.25.25.25,0,0,1-.25-.25V12.33a.24.24,0,0,1,.14-.22.25.25,0,0,1,.26,0l5.33,4.31a.25.25,0,0,1-.16.44Z"/><path class="cls-9" d="M234.5,16.89a.3.3,0,0,1-.16-.05l-4.92-4v3.72a.25.25,0,1,1-.5,0V12.33a.26.26,0,0,1,.14-.22.26.26,0,0,1,.27,0l5.33,4.31a.24.24,0,0,1,0,.35A.23.23,0,0,1,234.5,16.89Z"/><path class="cls-9" d="M239.26,16.89a.3.3,0,0,1-.16-.05l-4.92-4v3.72a.25.25,0,0,1-.5,0V12.33a.24.24,0,0,1,.14-.22.26.26,0,0,1,.27,0l5.32,4.31a.24.24,0,0,1,0,.35A.25.25,0,0,1,239.26,16.89Z"/><path class="cls-9" d="M244,16.89a.27.27,0,0,1-.15-.05l-4.92-4v3.72a.25.25,0,0,1-.25.25.25.25,0,0,1-.25-.25V12.33a.24.24,0,0,1,.14-.22.24.24,0,0,1,.26,0l5.33,4.31a.24.24,0,0,1,0,.35A.25.25,0,0,1,244,16.89Z"/><path class="cls-9" d="M248.77,16.89a.3.3,0,0,1-.16-.05l-4.92-4v3.72a.25.25,0,0,1-.5,0V12.33a.26.26,0,0,1,.41-.19l5.33,4.31a.24.24,0,0,1,0,.35A.23.23,0,0,1,248.77,16.89Z"/><path class="cls-9" d="M253.53,16.89a.3.3,0,0,1-.16-.05l-4.92-4v3.72a.25.25,0,0,1-.5,0V12.33a.24.24,0,0,1,.14-.22.26.26,0,0,1,.27,0l5.32,4.31a.24.24,0,0,1,0,.35A.25.25,0,0,1,253.53,16.89Z"/><path class="cls-9" d="M258.28,16.89a.27.27,0,0,1-.15-.05l-4.92-4v3.72a.25.25,0,0,1-.25.25.25.25,0,0,1-.25-.25V12.33a.24.24,0,0,1,.14-.22.25.25,0,0,1,.26,0l5.33,4.31a.24.24,0,0,1,0,.35A.25.25,0,0,1,258.28,16.89Z"/><path class="cls-9" d="M263,16.89a.3.3,0,0,1-.16-.05l-4.92-4v3.72a.25.25,0,0,1-.5,0V12.33a.25.25,0,0,1,.15-.22.25.25,0,0,1,.26,0l5.33,4.31a.25.25,0,0,1,0,.35A.27.27,0,0,1,263,16.89Z"/><path class="cls-9" d="M291.16,16.89a.25.25,0,0,1-.19-.09l-6.39-7.54v7.32a.25.25,0,0,1-.5,0v-8a.27.27,0,0,1,.16-.24.27.27,0,0,1,.28.08l6.83,8.06a.24.24,0,0,1,0,.35A.23.23,0,0,1,291.16,16.89Z"/><path class="cls-9" d="M296.07,16.89a.23.23,0,0,1-.2-.11L291,9.41v7.17a.25.25,0,0,1-.5,0v-8a.25.25,0,0,1,.17-.24.27.27,0,0,1,.29.1l5.32,8.06a.25.25,0,0,1-.07.35A.23.23,0,0,1,296.07,16.89Z"/><path class="cls-9" d="M225.74,75.48a1.58,1.58,0,1,1-1.58-1.58A1.58,1.58,0,0,1,225.74,75.48Z"/><polygon points="290.55 126.2 289.16 167.67 292.78 167.67 295.01 126.2 290.55 126.2"/><polygon points="286.24 151.59 288.61 151.59 288.19 174.29 266.9 173.21 267.04 171.86 285.63 172.67 286.24 151.59"/><path d="M317.47,129.71h12.74v31.48H298.9v-2.28a39.5,39.5,0,0,1,8.42-24.31h0A12.89,12.89,0,0,1,317.47,129.71Z"/><path d="M325.48,149.43h4.38a7.48,7.48,0,0,1,7.58,7.37v12.09h-12.1v3.78h-25v-9.46h-6.16v-.45a4.89,4.89,0,0,1,5-4.82h26.34Z"/><ellipse cx="297.65" cy="168.89" rx="9.04" ry="8.78"/><path class="cls-12" d="M302.26,168.89a4.61,4.61,0,1,1-4.61-4.48A4.54,4.54,0,0,1,302.26,168.89Z"/><ellipse cx="331.6" cy="168.89" rx="9.04" ry="8.78"/><path class="cls-12" d="M336.21,168.89a4.61,4.61,0,1,1-4.61-4.48A4.54,4.54,0,0,1,336.21,168.89Z"/><path class="cls-8" d="M303.49,149.83h12V133.49S307.81,131.73,303.49,149.83Z"/><rect x="286.99" y="159.97" width="3.09" height="1.24"/><rect x="288.63" y="128.74" width="8.91" height="1.24"/><rect class="cls-12" x="318.98" y="133.33" width="8.72" height="1.59"/><rect class="cls-8" x="319.32" y="136.79" width="7.88" height="13.04"/><path d="M66.82,145.22,51.14,115.59a3.86,3.86,0,0,0-6.72-.62h0l-15,20c-.21,0-.42,0-.63,0H22a4.87,4.87,0,0,0-4.86,4.86v6h-6a2.9,2.9,0,0,0-2.89,2.89v6.89a2.9,2.9,0,0,0,2.89,2.89h7.93v2.09h-7a6.82,6.82,0,1,0,0,13.64H35.8a6.82,6.82,0,0,0,0-13.64H28.85v-2.09h7.93a.93.93,0,0,0,.93-.93v-3h1.34l.06,0h0a1.19,1.19,0,0,0,.15-.09l0,0,0,0,0,0,0,0,0,0,0,0v0l.05-.06v0l0-.05a.87.87,0,0,0,.1-.31.62.62,0,0,0,0-.13V150a8.82,8.82,0,0,0-1.47-4.88L36.74,143l10.13-17,15,22.17a2.92,2.92,0,0,0,1.57,1.28v1.52l-.27-.67a.92.92,0,0,0-.49-.5.9.9,0,0,0-.7,0l-12.61,5.07L47.16,153A.92.92,0,1,0,46,154.45l6.8,5.61a6.84,6.84,0,0,0,6.89,1.07l3.14-1.26a3.9,3.9,0,0,0,2.4-3.13.85.85,0,0,0,0-.23v-7.1a2.89,2.89,0,0,0,1.57-4.19Z"/><path class="cls-8" d="M9.3,167.33a2.89,2.89,0,1,0,4.34-2.5,2.84,2.84,0,0,0-1.45-.39,2.9,2.9,0,0,0-2.89,2.89Z"/><path class="cls-8" d="M20.06,170.22a2.89,2.89,0,0,0,1.45-5.39,2.84,2.84,0,0,0-1.45-.39,2.89,2.89,0,1,0,0,5.78Z"/><path class="cls-8" d="M27.93,170.22a2.89,2.89,0,0,0,1.45-5.39,2.84,2.84,0,0,0-1.45-.39,2.89,2.89,0,0,0,0,5.78Z"/><path class="cls-8" d="M35.8,170.22a2.89,2.89,0,0,0,1.45-5.39,2.84,2.84,0,0,0-1.45-.39,2.89,2.89,0,0,0,0,5.78Z"/><path class="cls-12" d="M13.18,151.53h1a.92.92,0,1,0,0-1.84h-1a.92.92,0,1,0,0,1.84Z"/><path class="cls-12" d="M13.18,154.48h1a.92.92,0,1,0,0-1.84h-1a.92.92,0,1,0,0,1.84Z"/><polygon class="cls-8" points="23.83 138.24 23.83 150.78 36.62 150.78 36.62 147.61 29.91 138.11 23.83 138.24"/></g></g></svg>