<?xml version="1.0" encoding="UTF-8" standalone="no"?><svg id="Layer_1" data-name="Layer 1" xmlns="http://www.w3.org/2000/svg" viewBox="0 0 399.14 54.66"><path d="M70.43,142.44V131.19h4.44v7.06H75c1.7-5,5.23-7.71,9.62-7.71a8.1,8.1,0,0,1,2.41.33v4.18a8.6,8.6,0,0,0-2.28-.33c-5,0-9.88,3.93-9.88,13v14.52H70.43V142.44Z" transform="translate(-70.43 -115.83)"/><path d="M118.62,158.85v3.33a8.09,8.09,0,0,1-3.4.72,5.41,5.41,0,0,1-5.56-5.23v-.91h-.13a10.66,10.66,0,0,1-9.81,6.14c-4.71,0-8.69-3-8.69-8,0-5.5,4.9-7.72,11.5-9.35l7.13-1.7v-1.77c0-5.56-3.2-7.71-8-7.71a18.24,18.24,0,0,0-9.54,2.87v-3.79a19,19,0,0,1,10.2-2.94c6.08,0,11.64,3,11.64,11.7v14.39c0,1.83,1,2.68,2.48,2.68A5.32,5.32,0,0,0,118.62,158.85Zm-9-9.94v-2l-6.08,1.7c-4.71,1.31-8,2.62-8,6,0,3,2.16,4.71,5,4.71C104.89,159.31,109.66,156,109.66,148.91Z" transform="translate(-70.43 -115.83)"/><path d="M136.14,158.46H146v3.79h-23.6v-3.92l17.59-23.15V135H122.87v-3.79H145v3.93l-17.59,23.14v.2Z" transform="translate(-70.43 -115.83)"/><path d="M153.15,151.2v-20h4.44v19.88c0,5.56,2.68,8,6.61,8,4.64,0,8.56-3.67,8.56-10.14V131.19h4.45v31.06h-4.45v-5.17h-.06a10.44,10.44,0,0,1-9.42,5.82C157.72,162.9,153.15,159.11,153.15,151.2Z" transform="translate(-70.43 -115.83)"/><path d="M185.71,147.21c0-13.86,10.27-24.45,23.74-24.45,12.55,0,21.44,8.82,21.44,21,0,9.08-4.9,14.64-11,14.64-3.27,0-5.56-1.76-6.28-4.44h-.13a9.08,9.08,0,0,1-7.59,4.44c-5,0-8.69-3.72-8.69-9.87,0-7.39,4.84-13.73,11.31-13.73a6.8,6.8,0,0,1,6.67,4.9h.06l.92-4.31h3.92l-3,14.12c-.65,3.2.33,5.36,3,5.36,3.6,0,6.74-4,6.74-11.11,0-10.14-7.2-17.13-17.39-17.13-11,0-19.49,8.76-19.49,20.59,0,11.64,7.78,19.42,18.9,19.42a24.1,24.1,0,0,0,11-2.61v3.72a23.86,23.86,0,0,1-11.12,2.75C195.19,170.49,185.71,160.88,185.71,147.21Zm28.12-2.48v-.07c0-3.79-1.77-6.73-5.1-6.73-4.32,0-7.52,4.64-7.52,10.59,0,3.86,1.76,6.67,5,6.67C210.56,155.19,213.83,150.94,213.83,144.73Z" transform="translate(-70.43 -115.83)"/><path d="M237.24,146.62c0-9.28,6.6-16.08,16.15-16.08a16.43,16.43,0,0,1,8.24,2v3.72A16.53,16.53,0,0,0,254,134.4c-7.25,0-12.16,4.9-12.16,12.22s5,12.43,12.29,12.43a17,17,0,0,0,8.11-2.16v3.66a17,17,0,0,1-8.7,2.35C243.91,162.9,237.24,156,237.24,146.62Z" transform="translate(-70.43 -115.83)"/><path d="M295.76,158.85v3.33a8.06,8.06,0,0,1-3.4.72,5.41,5.41,0,0,1-5.56-5.23v-.91h-.13a10.65,10.65,0,0,1-9.81,6.14c-4.7,0-8.69-3-8.69-8,0-5.5,4.9-7.72,11.51-9.35l7.12-1.7v-1.77c0-5.56-3.2-7.71-8-7.71a18.27,18.27,0,0,0-9.55,2.87v-3.79a19,19,0,0,1,10.2-2.94c6.08,0,11.64,3,11.64,11.7v14.39c0,1.83,1,2.68,2.48,2.68A5.29,5.29,0,0,0,295.76,158.85Zm-9-9.94v-2l-6.08,1.7c-4.71,1.31-8,2.62-8,6,0,3,2.15,4.71,5,4.71C282,159.31,286.8,156,286.8,148.91Z" transform="translate(-70.43 -115.83)"/><path d="M300.08,159.9V156a15.46,15.46,0,0,0,8.89,3c3.66,0,7.13-1.57,7.13-4.91,0-2.29-1.57-3.33-4.77-4.77l-4-1.7c-4.51-1.9-6.61-4.58-6.61-8.11,0-5,4.71-9,11-9a16.09,16.09,0,0,1,7.84,2v3.79a15.47,15.47,0,0,0-7.52-2c-3.85,0-7,1.76-7,4.9,0,2.22,1.31,3.53,4.84,5l4.31,1.83c3.92,1.63,6.21,3.92,6.21,7.78,0,5.23-4.83,9-11.18,9A15.82,15.82,0,0,1,300.08,159.9Z" transform="translate(-70.43 -115.83)"/><path d="M352.91,146.17H331c.13,8,4.64,12.88,11.9,12.88a18,18,0,0,0,9.54-2.88v3.73a17.06,17.06,0,0,1-10.13,3c-9.29,0-15.82-6.53-15.82-16.41,0-9.22,6.08-16,14.18-16,7.2,0,12.23,4.9,12.23,13.21Zm-21.64-3.6H348.4c-.2-5.36-3.33-8.37-8-8.37C335.45,134.2,332.25,137.47,331.27,142.57Z" transform="translate(-70.43 -115.83)"/><path d="M359.91,159.18a3.72,3.72,0,0,1,3.73-3.73,3.73,3.73,0,0,1,0,7.45A3.72,3.72,0,0,1,359.91,159.18Z" transform="translate(-70.43 -115.83)"/><path d="M400.06,146.17h-21.9c.13,8,4.64,12.88,11.89,12.88a18,18,0,0,0,9.55-2.88v3.73a17.06,17.06,0,0,1-10.13,3c-9.29,0-15.83-6.53-15.83-16.41,0-9.22,6.08-16,14.19-16,7.19,0,12.23,4.9,12.23,13.21Zm-21.64-3.6h17.13c-.2-5.36-3.34-8.37-8-8.37C382.6,134.2,379.4,137.47,378.42,142.57Z" transform="translate(-70.43 -115.83)"/><path d="M406.41,146.69c0-10.27,6.47-16.15,13.79-16.15a11.36,11.36,0,0,1,10.4,6.34h.06v-21h4.45v46.42h-4.45v-5.69h-.06a11.47,11.47,0,0,1-10.4,6.34C412.94,162.9,406.41,157.08,406.41,146.69Zm24.45,0v-.13c0-7.59-4-12.36-9.87-12.36-6.08,0-9.94,4.9-9.94,12.49s3.86,12.55,9.94,12.55C426.87,159.24,430.86,154.34,430.86,146.69Z" transform="translate(-70.43 -115.83)"/><path d="M445.51,151.2v-20H450v19.88c0,5.56,2.68,8,6.61,8,4.64,0,8.56-3.67,8.56-10.14V131.19h4.45v31.06h-4.45v-5.17h-.06a10.44,10.44,0,0,1-9.42,5.82C450.08,162.9,445.51,159.11,445.51,151.2Z" transform="translate(-70.43 -115.83)"/></svg>